<mxfile host="app.diagrams.net" agent="Mozilla/5.0 (Windows NT 10.0; Win64; x64; rv:138.0) Gecko/20100101 Firefox/138.0" version="27.0.6" pages="4">
  <diagram name="problem-solving" id="NtBqkps6XmYwAPOiUv5h">
    <mxGraphModel dx="990" dy="850" grid="1" gridSize="10" guides="1" tooltips="1" connect="1" arrows="1" fold="1" page="1" pageScale="1" pageWidth="850" pageHeight="1100" math="0" shadow="0">
      <root>
        <mxCell id="0" />
        <mxCell id="1" parent="0" />
        <mxCell id="BD0k8di83b8WuerWBVUI-1" value="" style="ellipse;whiteSpace=wrap;html=1;aspect=fixed;fillColor=#DADADA;fontColor=#333333;strokeColor=#666666;strokeWidth=3;fillStyle=solid;" parent="1" vertex="1">
          <mxGeometry x="590" y="350" width="40" height="40" as="geometry" />
        </mxCell>
        <mxCell id="BD0k8di83b8WuerWBVUI-3" value="" style="ellipse;whiteSpace=wrap;html=1;aspect=fixed;fillColor=#DADADA;fontColor=#333333;strokeColor=#666666;strokeWidth=3;fillStyle=solid;" parent="1" vertex="1">
          <mxGeometry x="160" y="360" width="40" height="40" as="geometry" />
        </mxCell>
        <mxCell id="BD0k8di83b8WuerWBVUI-4" value="" style="ellipse;whiteSpace=wrap;html=1;aspect=fixed;fillColor=#DADADA;fontColor=#333333;strokeColor=#666666;strokeWidth=3;fillStyle=solid;opacity=30;" parent="1" vertex="1">
          <mxGeometry x="650" y="430" width="40" height="40" as="geometry" />
        </mxCell>
        <mxCell id="BD0k8di83b8WuerWBVUI-6" value="" style="ellipse;whiteSpace=wrap;html=1;aspect=fixed;fillColor=#DADADA;fontColor=#333333;strokeColor=#666666;strokeWidth=3;fillStyle=solid;opacity=30;" parent="1" vertex="1">
          <mxGeometry x="520" y="390" width="40" height="40" as="geometry" />
        </mxCell>
        <mxCell id="BD0k8di83b8WuerWBVUI-8" value="" style="ellipse;whiteSpace=wrap;html=1;aspect=fixed;fillColor=#DADADA;fontColor=#333333;strokeColor=#666666;strokeWidth=3;fillStyle=solid;opacity=30;" parent="1" vertex="1">
          <mxGeometry x="580" y="450" width="40" height="40" as="geometry" />
        </mxCell>
        <mxCell id="BD0k8di83b8WuerWBVUI-9" value="" style="ellipse;whiteSpace=wrap;html=1;aspect=fixed;fillColor=#DADADA;fontColor=#333333;strokeColor=#666666;strokeWidth=3;fillStyle=solid;opacity=30;" parent="1" vertex="1">
          <mxGeometry x="450" y="320" width="40" height="40" as="geometry" />
        </mxCell>
        <mxCell id="BD0k8di83b8WuerWBVUI-10" value="" style="ellipse;whiteSpace=wrap;html=1;aspect=fixed;fillColor=#DADADA;fontColor=#333333;strokeColor=#666666;strokeWidth=3;fillStyle=solid;opacity=30;" parent="1" vertex="1">
          <mxGeometry x="700" y="270" width="40" height="40" as="geometry" />
        </mxCell>
        <mxCell id="BD0k8di83b8WuerWBVUI-11" value="" style="ellipse;whiteSpace=wrap;html=1;aspect=fixed;fillColor=#DADADA;fontColor=#333333;strokeColor=#666666;strokeWidth=3;fillStyle=solid;opacity=30;" parent="1" vertex="1">
          <mxGeometry x="730" y="360" width="40" height="40" as="geometry" />
        </mxCell>
        <mxCell id="BD0k8di83b8WuerWBVUI-12" value="" style="ellipse;whiteSpace=wrap;html=1;aspect=fixed;fillColor=#DADADA;fontColor=#333333;strokeColor=#666666;strokeWidth=3;fillStyle=solid;opacity=30;" parent="1" vertex="1">
          <mxGeometry x="555" y="290" width="40" height="40" as="geometry" />
        </mxCell>
        <mxCell id="BD0k8di83b8WuerWBVUI-22" value="" style="ellipse;whiteSpace=wrap;html=1;aspect=fixed;fillColor=#DADADA;fontColor=#333333;strokeColor=#666666;strokeWidth=3;fillStyle=solid;" parent="1" vertex="1">
          <mxGeometry x="1015" y="350" width="40" height="40" as="geometry" />
        </mxCell>
        <mxCell id="BD0k8di83b8WuerWBVUI-23" value="" style="ellipse;whiteSpace=wrap;html=1;aspect=fixed;fillColor=#DADADA;fontColor=#333333;strokeColor=#666666;strokeWidth=3;fillStyle=solid;opacity=30;" parent="1" vertex="1">
          <mxGeometry x="1075" y="430" width="40" height="40" as="geometry" />
        </mxCell>
        <mxCell id="BD0k8di83b8WuerWBVUI-24" value="" style="ellipse;whiteSpace=wrap;html=1;aspect=fixed;fillColor=#DADADA;fontColor=#333333;strokeColor=#666666;strokeWidth=3;fillStyle=solid;opacity=30;" parent="1" vertex="1">
          <mxGeometry x="945" y="390" width="40" height="40" as="geometry" />
        </mxCell>
        <mxCell id="BD0k8di83b8WuerWBVUI-25" value="" style="ellipse;whiteSpace=wrap;html=1;aspect=fixed;fillColor=#DADADA;fontColor=#333333;strokeColor=#666666;strokeWidth=3;fillStyle=solid;opacity=30;" parent="1" vertex="1">
          <mxGeometry x="1005" y="450" width="40" height="40" as="geometry" />
        </mxCell>
        <mxCell id="BD0k8di83b8WuerWBVUI-30" style="rounded=0;orthogonalLoop=1;jettySize=auto;html=1;exitX=0.341;exitY=0.989;exitDx=0;exitDy=0;strokeWidth=4;sketch=1;curveFitting=1;jiggle=2;strokeColor=#424242;exitPerimeter=0;" parent="1" source="BD0k8di83b8WuerWBVUI-26" edge="1">
          <mxGeometry relative="1" as="geometry">
            <mxPoint x="860" y="420" as="targetPoint" />
          </mxGeometry>
        </mxCell>
        <mxCell id="BD0k8di83b8WuerWBVUI-26" value="" style="ellipse;whiteSpace=wrap;html=1;aspect=fixed;fillColor=#DADADA;fontColor=#333333;strokeColor=#666666;strokeWidth=3;fillStyle=solid;opacity=30;" parent="1" vertex="1">
          <mxGeometry x="875" y="320" width="40" height="40" as="geometry" />
        </mxCell>
        <mxCell id="BD0k8di83b8WuerWBVUI-27" value="" style="ellipse;whiteSpace=wrap;html=1;aspect=fixed;fillColor=#DADADA;fontColor=#333333;strokeColor=#666666;strokeWidth=3;fillStyle=solid;opacity=30;" parent="1" vertex="1">
          <mxGeometry x="1125" y="270" width="40" height="40" as="geometry" />
        </mxCell>
        <mxCell id="BD0k8di83b8WuerWBVUI-28" value="" style="ellipse;whiteSpace=wrap;html=1;aspect=fixed;fillColor=#DADADA;fontColor=#333333;strokeColor=#666666;strokeWidth=3;fillStyle=solid;opacity=30;" parent="1" vertex="1">
          <mxGeometry x="1155" y="360" width="40" height="40" as="geometry" />
        </mxCell>
        <mxCell id="BD0k8di83b8WuerWBVUI-29" value="" style="ellipse;whiteSpace=wrap;html=1;aspect=fixed;fillColor=#DADADA;fontColor=#333333;strokeColor=#666666;strokeWidth=3;fillStyle=solid;opacity=30;" parent="1" vertex="1">
          <mxGeometry x="980" y="290" width="40" height="40" as="geometry" />
        </mxCell>
        <mxCell id="BD0k8di83b8WuerWBVUI-31" style="rounded=0;orthogonalLoop=1;jettySize=auto;html=1;strokeWidth=4;sketch=1;curveFitting=1;jiggle=2;strokeColor=#424242;" parent="1" edge="1">
          <mxGeometry relative="1" as="geometry">
            <mxPoint x="950" y="329" as="targetPoint" />
            <mxPoint x="960" y="389" as="sourcePoint" />
          </mxGeometry>
        </mxCell>
        <mxCell id="BD0k8di83b8WuerWBVUI-32" style="rounded=0;orthogonalLoop=1;jettySize=auto;html=1;strokeWidth=6;sketch=1;curveFitting=1;jiggle=2;strokeColor=#424242;" parent="1" edge="1">
          <mxGeometry relative="1" as="geometry">
            <mxPoint x="1100" y="330" as="targetPoint" />
            <mxPoint x="1020" y="310" as="sourcePoint" />
          </mxGeometry>
        </mxCell>
        <mxCell id="BD0k8di83b8WuerWBVUI-33" style="rounded=0;orthogonalLoop=1;jettySize=auto;html=1;strokeWidth=3;sketch=1;curveFitting=1;jiggle=2;strokeColor=#424242;exitX=0;exitY=0.5;exitDx=0;exitDy=0;" parent="1" source="BD0k8di83b8WuerWBVUI-25" edge="1">
          <mxGeometry relative="1" as="geometry">
            <mxPoint x="920" y="450" as="targetPoint" />
            <mxPoint x="1025" y="450" as="sourcePoint" />
          </mxGeometry>
        </mxCell>
        <mxCell id="BD0k8di83b8WuerWBVUI-34" style="rounded=0;orthogonalLoop=1;jettySize=auto;html=1;strokeWidth=4;sketch=1;curveFitting=1;jiggle=2;strokeColor=#424242;" parent="1" edge="1">
          <mxGeometry relative="1" as="geometry">
            <mxPoint x="990" y="420" as="targetPoint" />
            <mxPoint x="1070" y="440" as="sourcePoint" />
          </mxGeometry>
        </mxCell>
        <mxCell id="BD0k8di83b8WuerWBVUI-36" style="rounded=0;orthogonalLoop=1;jettySize=auto;html=1;strokeWidth=4;sketch=1;curveFitting=1;jiggle=2;strokeColor=#424242;exitX=0.971;exitY=0.738;exitDx=0;exitDy=0;exitPerimeter=0;entryX=0.335;entryY=-0.085;entryDx=0;entryDy=0;entryPerimeter=0;" parent="1" source="BD0k8di83b8WuerWBVUI-22" target="BD0k8di83b8WuerWBVUI-23" edge="1">
          <mxGeometry relative="1" as="geometry">
            <mxPoint x="1100" y="420" as="targetPoint" />
            <mxPoint x="1125" y="395" as="sourcePoint" />
          </mxGeometry>
        </mxCell>
        <mxCell id="BD0k8di83b8WuerWBVUI-37" style="rounded=0;orthogonalLoop=1;jettySize=auto;html=1;strokeWidth=4;sketch=1;curveFitting=1;jiggle=2;strokeColor=#424242;exitX=0.5;exitY=1;exitDx=0;exitDy=0;" parent="1" source="BD0k8di83b8WuerWBVUI-27" edge="1">
          <mxGeometry relative="1" as="geometry">
            <mxPoint x="1120" y="390" as="targetPoint" />
            <mxPoint x="1140" y="320" as="sourcePoint" />
          </mxGeometry>
        </mxCell>
        <mxCell id="BD0k8di83b8WuerWBVUI-38" style="rounded=0;orthogonalLoop=1;jettySize=auto;html=1;strokeWidth=4;sketch=1;curveFitting=1;jiggle=2;strokeColor=#424242;exitX=0.5;exitY=1;exitDx=0;exitDy=0;" parent="1" edge="1">
          <mxGeometry relative="1" as="geometry">
            <mxPoint x="1120" y="440" as="targetPoint" />
            <mxPoint x="1157.5" y="400" as="sourcePoint" />
          </mxGeometry>
        </mxCell>
        <mxCell id="BD0k8di83b8WuerWBVUI-40" style="rounded=0;orthogonalLoop=1;jettySize=auto;html=1;exitX=1.039;exitY=0.202;exitDx=0;exitDy=0;strokeWidth=4;sketch=1;curveFitting=1;jiggle=2;strokeColor=#424242;exitPerimeter=0;entryX=0;entryY=0.5;entryDx=0;entryDy=0;" parent="1" source="BD0k8di83b8WuerWBVUI-26" target="BD0k8di83b8WuerWBVUI-29" edge="1">
          <mxGeometry relative="1" as="geometry">
            <mxPoint x="1020" y="440" as="targetPoint" />
            <mxPoint x="899" y="370" as="sourcePoint" />
          </mxGeometry>
        </mxCell>
        <mxCell id="BD0k8di83b8WuerWBVUI-58" value="" style="ellipse;whiteSpace=wrap;html=1;aspect=fixed;fillColor=#DADADA;fontColor=#333333;strokeColor=#666666;strokeWidth=3;fillStyle=solid;" parent="1" vertex="1">
          <mxGeometry x="250" y="776" width="40" height="40" as="geometry" />
        </mxCell>
        <mxCell id="BD0k8di83b8WuerWBVUI-59" value="" style="ellipse;whiteSpace=wrap;html=1;aspect=fixed;fillColor=#DADADA;fontColor=#333333;strokeColor=#666666;strokeWidth=3;fillStyle=solid;" parent="1" vertex="1">
          <mxGeometry x="310" y="856" width="40" height="40" as="geometry" />
        </mxCell>
        <mxCell id="BD0k8di83b8WuerWBVUI-60" value="" style="ellipse;whiteSpace=wrap;html=1;aspect=fixed;fillColor=#DADADA;fontColor=#333333;strokeColor=#666666;strokeWidth=3;fillStyle=solid;" parent="1" vertex="1">
          <mxGeometry x="180" y="816" width="40" height="40" as="geometry" />
        </mxCell>
        <mxCell id="BD0k8di83b8WuerWBVUI-61" value="" style="ellipse;whiteSpace=wrap;html=1;aspect=fixed;fillColor=#DADADA;fontColor=#333333;strokeColor=#666666;strokeWidth=3;fillStyle=solid;" parent="1" vertex="1">
          <mxGeometry x="240" y="876" width="40" height="40" as="geometry" />
        </mxCell>
        <mxCell id="BD0k8di83b8WuerWBVUI-63" value="" style="ellipse;whiteSpace=wrap;html=1;aspect=fixed;fillColor=#DADADA;fontColor=#333333;strokeColor=#666666;strokeWidth=3;fillStyle=solid;" parent="1" vertex="1">
          <mxGeometry x="110" y="746" width="40" height="40" as="geometry" />
        </mxCell>
        <mxCell id="BD0k8di83b8WuerWBVUI-64" value="" style="ellipse;whiteSpace=wrap;html=1;aspect=fixed;fillColor=#DADADA;fontColor=#333333;strokeColor=#666666;strokeWidth=3;fillStyle=solid;" parent="1" vertex="1">
          <mxGeometry x="360" y="696" width="40" height="40" as="geometry" />
        </mxCell>
        <mxCell id="BD0k8di83b8WuerWBVUI-65" value="" style="ellipse;whiteSpace=wrap;html=1;aspect=fixed;fillColor=#DADADA;fontColor=#333333;strokeColor=#666666;strokeWidth=3;fillStyle=solid;" parent="1" vertex="1">
          <mxGeometry x="390" y="786" width="40" height="40" as="geometry" />
        </mxCell>
        <mxCell id="BD0k8di83b8WuerWBVUI-66" value="" style="ellipse;whiteSpace=wrap;html=1;aspect=fixed;fillColor=#DADADA;fontColor=#333333;strokeColor=#666666;strokeWidth=3;fillStyle=solid;" parent="1" vertex="1">
          <mxGeometry x="215" y="716" width="40" height="40" as="geometry" />
        </mxCell>
        <mxCell id="BD0k8di83b8WuerWBVUI-67" style="rounded=0;orthogonalLoop=1;jettySize=auto;html=1;strokeWidth=4;sketch=1;curveFitting=1;jiggle=2;strokeColor=#424242;exitX=-0.063;exitY=0.323;exitDx=0;exitDy=0;exitPerimeter=0;" parent="1" source="BD0k8di83b8WuerWBVUI-60" edge="1">
          <mxGeometry relative="1" as="geometry">
            <mxPoint x="135" y="796" as="targetPoint" />
            <mxPoint x="195" y="815" as="sourcePoint" />
          </mxGeometry>
        </mxCell>
        <mxCell id="BD0k8di83b8WuerWBVUI-68" style="rounded=0;orthogonalLoop=1;jettySize=auto;html=1;strokeWidth=6;sketch=1;curveFitting=1;jiggle=2;strokeColor=#424242;" parent="1" edge="1">
          <mxGeometry relative="1" as="geometry">
            <mxPoint x="355" y="716" as="targetPoint" />
            <mxPoint x="255" y="736" as="sourcePoint" />
          </mxGeometry>
        </mxCell>
        <mxCell id="BD0k8di83b8WuerWBVUI-69" style="rounded=0;orthogonalLoop=1;jettySize=auto;html=1;strokeWidth=3;sketch=1;curveFitting=1;jiggle=2;strokeColor=#424242;exitX=0.5;exitY=1;exitDx=0;exitDy=0;" parent="1" source="BD0k8di83b8WuerWBVUI-60" edge="1">
          <mxGeometry relative="1" as="geometry">
            <mxPoint x="235" y="886" as="targetPoint" />
            <mxPoint x="260" y="876" as="sourcePoint" />
          </mxGeometry>
        </mxCell>
        <mxCell id="BD0k8di83b8WuerWBVUI-70" style="rounded=0;orthogonalLoop=1;jettySize=auto;html=1;strokeWidth=4;sketch=1;curveFitting=1;jiggle=2;strokeColor=#424242;" parent="1" edge="1">
          <mxGeometry relative="1" as="geometry">
            <mxPoint x="225" y="846" as="targetPoint" />
            <mxPoint x="305" y="866" as="sourcePoint" />
          </mxGeometry>
        </mxCell>
        <mxCell id="BD0k8di83b8WuerWBVUI-71" style="rounded=0;orthogonalLoop=1;jettySize=auto;html=1;strokeWidth=4;sketch=1;curveFitting=1;jiggle=2;strokeColor=#424242;exitX=0.971;exitY=0.738;exitDx=0;exitDy=0;exitPerimeter=0;entryX=0.335;entryY=-0.085;entryDx=0;entryDy=0;entryPerimeter=0;" parent="1" source="BD0k8di83b8WuerWBVUI-58" target="BD0k8di83b8WuerWBVUI-59" edge="1">
          <mxGeometry relative="1" as="geometry">
            <mxPoint x="335" y="846" as="targetPoint" />
            <mxPoint x="360" y="821" as="sourcePoint" />
          </mxGeometry>
        </mxCell>
        <mxCell id="BD0k8di83b8WuerWBVUI-72" style="rounded=0;orthogonalLoop=1;jettySize=auto;html=1;strokeWidth=4;sketch=1;curveFitting=1;jiggle=2;strokeColor=#424242;exitX=0.682;exitY=0.995;exitDx=0;exitDy=0;exitPerimeter=0;entryX=0.5;entryY=0;entryDx=0;entryDy=0;" parent="1" source="BD0k8di83b8WuerWBVUI-64" target="BD0k8di83b8WuerWBVUI-65" edge="1">
          <mxGeometry relative="1" as="geometry">
            <mxPoint x="405" y="766" as="targetPoint" />
            <mxPoint x="375" y="746" as="sourcePoint" />
          </mxGeometry>
        </mxCell>
        <mxCell id="BD0k8di83b8WuerWBVUI-73" style="rounded=0;orthogonalLoop=1;jettySize=auto;html=1;strokeWidth=4;sketch=1;curveFitting=1;jiggle=2;strokeColor=#424242;exitX=0.5;exitY=1;exitDx=0;exitDy=0;" parent="1" edge="1">
          <mxGeometry relative="1" as="geometry">
            <mxPoint x="355" y="866" as="targetPoint" />
            <mxPoint x="392.5" y="826" as="sourcePoint" />
          </mxGeometry>
        </mxCell>
        <mxCell id="BD0k8di83b8WuerWBVUI-74" style="rounded=0;orthogonalLoop=1;jettySize=auto;html=1;strokeWidth=4;sketch=1;curveFitting=1;jiggle=2;strokeColor=#424242;entryX=1;entryY=0;entryDx=0;entryDy=0;exitX=-0.134;exitY=0.579;exitDx=0;exitDy=0;exitPerimeter=0;" parent="1" source="BD0k8di83b8WuerWBVUI-66" target="BD0k8di83b8WuerWBVUI-63" edge="1">
          <mxGeometry relative="1" as="geometry">
            <mxPoint x="255" y="866" as="targetPoint" />
            <mxPoint x="175" y="706" as="sourcePoint" />
          </mxGeometry>
        </mxCell>
        <mxCell id="BD0k8di83b8WuerWBVUI-75" style="rounded=0;orthogonalLoop=1;jettySize=auto;html=1;strokeWidth=4;sketch=1;curveFitting=1;jiggle=2;strokeColor=#424242;exitX=0.965;exitY=0.313;exitDx=0;exitDy=0;exitPerimeter=0;entryX=0;entryY=1;entryDx=0;entryDy=0;" parent="1" source="BD0k8di83b8WuerWBVUI-58" target="BD0k8di83b8WuerWBVUI-64" edge="1">
          <mxGeometry relative="1" as="geometry">
            <mxPoint x="333" y="863" as="targetPoint" />
            <mxPoint x="299" y="816" as="sourcePoint" />
          </mxGeometry>
        </mxCell>
        <mxCell id="BD0k8di83b8WuerWBVUI-332" value="" style="ellipse;whiteSpace=wrap;html=1;aspect=fixed;fillColor=#DADADA;fontColor=#333333;strokeColor=#666666;strokeWidth=3;fillStyle=solid;" parent="1" vertex="1">
          <mxGeometry x="667" y="940" width="40" height="40" as="geometry" />
        </mxCell>
        <mxCell id="BD0k8di83b8WuerWBVUI-333" value="" style="ellipse;whiteSpace=wrap;html=1;aspect=fixed;fillColor=#DADADA;strokeColor=#666666;strokeWidth=3;fillStyle=solid;fontColor=#333333;" parent="1" vertex="1">
          <mxGeometry x="667" y="855" width="40" height="40" as="geometry" />
        </mxCell>
        <mxCell id="BD0k8di83b8WuerWBVUI-334" value="" style="ellipse;whiteSpace=wrap;html=1;aspect=fixed;fillColor=#DADADA;strokeColor=#666666;strokeWidth=3;fillStyle=solid;fontColor=#333333;" parent="1" vertex="1">
          <mxGeometry x="577" y="853" width="40" height="40" as="geometry" />
        </mxCell>
        <mxCell id="BD0k8di83b8WuerWBVUI-335" value="" style="ellipse;whiteSpace=wrap;html=1;aspect=fixed;fillColor=#DADADA;strokeColor=#666666;strokeWidth=3;fillStyle=solid;fontColor=#333333;" parent="1" vertex="1">
          <mxGeometry x="687" y="700" width="40" height="40" as="geometry" />
        </mxCell>
        <mxCell id="BD0k8di83b8WuerWBVUI-336" value="" style="ellipse;whiteSpace=wrap;html=1;aspect=fixed;fillColor=#DADADA;fontColor=#333333;strokeColor=#666666;strokeWidth=3;fillStyle=solid;" parent="1" vertex="1">
          <mxGeometry x="687" y="610" width="40" height="40" as="geometry" />
        </mxCell>
        <mxCell id="BD0k8di83b8WuerWBVUI-337" value="" style="ellipse;whiteSpace=wrap;html=1;aspect=fixed;fillColor=#DADADA;strokeColor=#666666;strokeWidth=3;fillStyle=solid;fontColor=#333333;" parent="1" vertex="1">
          <mxGeometry x="757" y="853" width="40" height="40" as="geometry" />
        </mxCell>
        <mxCell id="BD0k8di83b8WuerWBVUI-338" value="" style="ellipse;whiteSpace=wrap;html=1;aspect=fixed;fillColor=#DADADA;strokeColor=#666666;strokeWidth=3;fillStyle=solid;fontColor=#333333;" parent="1" vertex="1">
          <mxGeometry x="617" y="770" width="40" height="40" as="geometry" />
        </mxCell>
        <mxCell id="BD0k8di83b8WuerWBVUI-339" style="rounded=0;orthogonalLoop=1;jettySize=auto;html=1;strokeWidth=4;sketch=1;curveFitting=1;jiggle=2;strokeColor=#424242;exitX=0.5;exitY=0;exitDx=0;exitDy=0;entryX=0.664;entryY=0.919;entryDx=0;entryDy=0;entryPerimeter=0;" parent="1" source="BD0k8di83b8WuerWBVUI-332" target="BD0k8di83b8WuerWBVUI-333" edge="1">
          <mxGeometry relative="1" as="geometry">
            <mxPoint x="672" y="758.5" as="targetPoint" />
            <mxPoint x="697" y="733.5" as="sourcePoint" />
          </mxGeometry>
        </mxCell>
        <mxCell id="BD0k8di83b8WuerWBVUI-340" style="rounded=0;orthogonalLoop=1;jettySize=auto;html=1;strokeWidth=4;sketch=1;curveFitting=1;jiggle=2;strokeColor=#424242;exitX=0.5;exitY=0;exitDx=0;exitDy=0;entryX=1;entryY=1;entryDx=0;entryDy=0;" parent="1" source="BD0k8di83b8WuerWBVUI-337" target="BD0k8di83b8WuerWBVUI-335" edge="1">
          <mxGeometry relative="1" as="geometry">
            <mxPoint x="756" y="772" as="targetPoint" />
            <mxPoint x="712" y="658.5" as="sourcePoint" />
          </mxGeometry>
        </mxCell>
        <mxCell id="BD0k8di83b8WuerWBVUI-341" style="rounded=0;orthogonalLoop=1;jettySize=auto;html=1;strokeWidth=4;sketch=1;curveFitting=1;jiggle=2;strokeColor=#424242;entryX=0.224;entryY=0.963;entryDx=0;entryDy=0;exitX=0.892;exitY=0.249;exitDx=0;exitDy=0;exitPerimeter=0;entryPerimeter=0;" parent="1" source="BD0k8di83b8WuerWBVUI-332" target="BD0k8di83b8WuerWBVUI-337" edge="1">
          <mxGeometry relative="1" as="geometry">
            <mxPoint x="670" y="775.5" as="targetPoint" />
            <mxPoint x="677" y="915.5" as="sourcePoint" />
          </mxGeometry>
        </mxCell>
        <mxCell id="BD0k8di83b8WuerWBVUI-342" style="rounded=0;orthogonalLoop=1;jettySize=auto;html=1;strokeWidth=3;sketch=1;curveFitting=1;jiggle=2;strokeColor=#424242;exitX=0.309;exitY=-0.05;exitDx=0;exitDy=0;entryX=0.961;entryY=0.914;entryDx=0;entryDy=0;exitPerimeter=0;entryPerimeter=0;" parent="1" source="BD0k8di83b8WuerWBVUI-333" target="BD0k8di83b8WuerWBVUI-338" edge="1">
          <mxGeometry relative="1" as="geometry">
            <mxPoint x="572" y="785.5" as="targetPoint" />
            <mxPoint x="623" y="841.5" as="sourcePoint" />
          </mxGeometry>
        </mxCell>
        <mxCell id="BD0k8di83b8WuerWBVUI-343" style="rounded=0;orthogonalLoop=1;jettySize=auto;html=1;strokeWidth=3;sketch=1;curveFitting=1;jiggle=2;strokeColor=#424242;exitX=1;exitY=0;exitDx=0;exitDy=0;entryX=0.004;entryY=0.871;entryDx=0;entryDy=0;entryPerimeter=0;" parent="1" source="BD0k8di83b8WuerWBVUI-338" target="BD0k8di83b8WuerWBVUI-335" edge="1">
          <mxGeometry relative="1" as="geometry">
            <mxPoint x="667" y="788.5" as="targetPoint" />
            <mxPoint x="651" y="841.5" as="sourcePoint" />
          </mxGeometry>
        </mxCell>
        <mxCell id="BD0k8di83b8WuerWBVUI-344" style="rounded=0;orthogonalLoop=1;jettySize=auto;html=1;strokeWidth=4;sketch=1;curveFitting=1;jiggle=2;strokeColor=#424242;entryX=0.5;entryY=1;entryDx=0;entryDy=0;exitX=0.5;exitY=0;exitDx=0;exitDy=0;" parent="1" source="BD0k8di83b8WuerWBVUI-335" target="BD0k8di83b8WuerWBVUI-336" edge="1">
          <mxGeometry relative="1" as="geometry">
            <mxPoint x="772" y="777" as="targetPoint" />
            <mxPoint x="687" y="648" as="sourcePoint" />
          </mxGeometry>
        </mxCell>
        <mxCell id="BD0k8di83b8WuerWBVUI-345" style="rounded=0;orthogonalLoop=1;jettySize=auto;html=1;strokeWidth=4;sketch=1;curveFitting=1;jiggle=2;strokeColor=#424242;entryX=0.767;entryY=1.071;entryDx=0;entryDy=0;entryPerimeter=0;exitX=-0.018;exitY=0.325;exitDx=0;exitDy=0;exitPerimeter=0;" parent="1" source="BD0k8di83b8WuerWBVUI-332" target="BD0k8di83b8WuerWBVUI-334" edge="1">
          <mxGeometry relative="1" as="geometry">
            <mxPoint x="674" y="885" as="targetPoint" />
            <mxPoint x="657" y="928" as="sourcePoint" />
          </mxGeometry>
        </mxCell>
        <mxCell id="BD0k8di83b8WuerWBVUI-346" style="rounded=0;orthogonalLoop=1;jettySize=auto;html=1;strokeWidth=3;sketch=1;curveFitting=1;jiggle=2;strokeColor=#424242;exitX=0.612;exitY=-0.011;exitDx=0;exitDy=0;entryX=0.237;entryY=0.943;entryDx=0;entryDy=0;exitPerimeter=0;entryPerimeter=0;" parent="1" source="BD0k8di83b8WuerWBVUI-334" target="BD0k8di83b8WuerWBVUI-338" edge="1">
          <mxGeometry relative="1" as="geometry">
            <mxPoint x="614" y="765.5" as="targetPoint" />
            <mxPoint x="577" y="838.5" as="sourcePoint" />
          </mxGeometry>
        </mxCell>
        <mxCell id="BD0k8di83b8WuerWBVUI-347" value="before reading problem statement" style="text;html=1;align=center;verticalAlign=middle;resizable=0;points=[];autosize=1;fillColor=default;strokeColor=default;fontSize=16;strokeWidth=2;" parent="1" vertex="1">
          <mxGeometry x="50" y="528" width="260" height="30" as="geometry" />
        </mxCell>
        <mxCell id="BD0k8di83b8WuerWBVUI-348" value="remembering related entities" style="text;html=1;align=center;verticalAlign=middle;resizable=0;points=[];autosize=1;fillColor=default;strokeColor=default;fontSize=16;strokeWidth=2;" parent="1" vertex="1">
          <mxGeometry x="500" y="528" width="230" height="30" as="geometry" />
        </mxCell>
        <mxCell id="BD0k8di83b8WuerWBVUI-350" value="trying to relate" style="text;html=1;align=center;verticalAlign=middle;resizable=0;points=[];autosize=1;fillColor=default;strokeColor=default;fontSize=16;strokeWidth=2;" parent="1" vertex="1">
          <mxGeometry x="965" y="528" width="120" height="30" as="geometry" />
        </mxCell>
        <mxCell id="BD0k8di83b8WuerWBVUI-351" value="figuring out the relation between them" style="text;html=1;align=center;verticalAlign=middle;resizable=0;points=[];autosize=1;fillColor=default;strokeColor=default;fontSize=16;strokeWidth=2;" parent="1" vertex="1">
          <mxGeometry x="125" y="1008" width="290" height="30" as="geometry" />
        </mxCell>
        <mxCell id="BD0k8di83b8WuerWBVUI-352" value="understanding" style="text;html=1;align=center;verticalAlign=middle;resizable=0;points=[];autosize=1;fillColor=default;strokeColor=default;fontSize=16;strokeWidth=2;" parent="1" vertex="1">
          <mxGeometry x="627" y="1008" width="120" height="30" as="geometry" />
        </mxCell>
        <mxCell id="BD0k8di83b8WuerWBVUI-355" value="" style="ellipse;whiteSpace=wrap;html=1;aspect=fixed;fillColor=#424242;fontColor=#333333;strokeColor=#666666;strokeWidth=3;fillStyle=solid;" parent="1" vertex="1">
          <mxGeometry x="1036" y="940" width="40" height="40" as="geometry" />
        </mxCell>
        <mxCell id="BD0k8di83b8WuerWBVUI-356" value="" style="ellipse;whiteSpace=wrap;html=1;aspect=fixed;fillColor=#e1d5e7;strokeColor=#9673a6;strokeWidth=3;fillStyle=solid;" parent="1" vertex="1">
          <mxGeometry x="1036" y="855" width="40" height="40" as="geometry" />
        </mxCell>
        <mxCell id="BD0k8di83b8WuerWBVUI-357" value="" style="ellipse;whiteSpace=wrap;html=1;aspect=fixed;fillColor=#e1d5e7;strokeColor=#9673a6;strokeWidth=3;fillStyle=solid;" parent="1" vertex="1">
          <mxGeometry x="945" y="853" width="40" height="40" as="geometry" />
        </mxCell>
        <mxCell id="BD0k8di83b8WuerWBVUI-358" value="" style="ellipse;whiteSpace=wrap;html=1;aspect=fixed;fillColor=#ffe6cc;strokeColor=#d79b00;strokeWidth=3;fillStyle=solid;" parent="1" vertex="1">
          <mxGeometry x="1056" y="700" width="40" height="40" as="geometry" />
        </mxCell>
        <mxCell id="BD0k8di83b8WuerWBVUI-359" value="" style="ellipse;whiteSpace=wrap;html=1;aspect=fixed;fillColor=#424242;strokeColor=#666666;strokeWidth=3;fillStyle=solid;" parent="1" vertex="1">
          <mxGeometry x="1056" y="610" width="40" height="40" as="geometry" />
        </mxCell>
        <mxCell id="BD0k8di83b8WuerWBVUI-360" value="" style="ellipse;whiteSpace=wrap;html=1;aspect=fixed;fillColor=#e1d5e7;strokeColor=#9673a6;strokeWidth=3;fillStyle=solid;" parent="1" vertex="1">
          <mxGeometry x="1126" y="853" width="40" height="40" as="geometry" />
        </mxCell>
        <mxCell id="BD0k8di83b8WuerWBVUI-361" value="" style="ellipse;whiteSpace=wrap;html=1;aspect=fixed;fillColor=#d5e8d4;strokeColor=#82b366;strokeWidth=3;fillStyle=solid;" parent="1" vertex="1">
          <mxGeometry x="986" y="770" width="40" height="40" as="geometry" />
        </mxCell>
        <mxCell id="BD0k8di83b8WuerWBVUI-362" style="rounded=0;orthogonalLoop=1;jettySize=auto;html=1;strokeWidth=4;sketch=1;curveFitting=1;jiggle=2;strokeColor=#424242;exitX=0.5;exitY=0;exitDx=0;exitDy=0;entryX=0.664;entryY=0.919;entryDx=0;entryDy=0;entryPerimeter=0;" parent="1" source="BD0k8di83b8WuerWBVUI-355" target="BD0k8di83b8WuerWBVUI-356" edge="1">
          <mxGeometry relative="1" as="geometry">
            <mxPoint x="1041" y="758.5" as="targetPoint" />
            <mxPoint x="1066" y="733.5" as="sourcePoint" />
          </mxGeometry>
        </mxCell>
        <mxCell id="BD0k8di83b8WuerWBVUI-363" style="rounded=0;orthogonalLoop=1;jettySize=auto;html=1;strokeWidth=4;sketch=1;curveFitting=1;jiggle=2;strokeColor=#424242;exitX=0.5;exitY=0;exitDx=0;exitDy=0;entryX=1;entryY=1;entryDx=0;entryDy=0;" parent="1" source="BD0k8di83b8WuerWBVUI-360" target="BD0k8di83b8WuerWBVUI-358" edge="1">
          <mxGeometry relative="1" as="geometry">
            <mxPoint x="1125" y="772" as="targetPoint" />
            <mxPoint x="1081" y="658.5" as="sourcePoint" />
          </mxGeometry>
        </mxCell>
        <mxCell id="BD0k8di83b8WuerWBVUI-364" style="rounded=0;orthogonalLoop=1;jettySize=auto;html=1;strokeWidth=4;sketch=1;curveFitting=1;jiggle=2;strokeColor=#424242;entryX=0.224;entryY=0.963;entryDx=0;entryDy=0;exitX=0.892;exitY=0.249;exitDx=0;exitDy=0;exitPerimeter=0;entryPerimeter=0;" parent="1" source="BD0k8di83b8WuerWBVUI-355" target="BD0k8di83b8WuerWBVUI-360" edge="1">
          <mxGeometry relative="1" as="geometry">
            <mxPoint x="1039" y="775.5" as="targetPoint" />
            <mxPoint x="1046" y="915.5" as="sourcePoint" />
          </mxGeometry>
        </mxCell>
        <mxCell id="BD0k8di83b8WuerWBVUI-365" style="rounded=0;orthogonalLoop=1;jettySize=auto;html=1;strokeWidth=3;sketch=1;curveFitting=1;jiggle=2;strokeColor=#424242;exitX=0.309;exitY=-0.05;exitDx=0;exitDy=0;entryX=0.961;entryY=0.914;entryDx=0;entryDy=0;exitPerimeter=0;entryPerimeter=0;" parent="1" source="BD0k8di83b8WuerWBVUI-356" target="BD0k8di83b8WuerWBVUI-361" edge="1">
          <mxGeometry relative="1" as="geometry">
            <mxPoint x="941" y="785.5" as="targetPoint" />
            <mxPoint x="992" y="841.5" as="sourcePoint" />
          </mxGeometry>
        </mxCell>
        <mxCell id="BD0k8di83b8WuerWBVUI-366" style="rounded=0;orthogonalLoop=1;jettySize=auto;html=1;strokeWidth=3;sketch=1;curveFitting=1;jiggle=2;strokeColor=#424242;exitX=1;exitY=0;exitDx=0;exitDy=0;entryX=0.004;entryY=0.871;entryDx=0;entryDy=0;entryPerimeter=0;" parent="1" edge="1">
          <mxGeometry relative="1" as="geometry">
            <mxPoint x="1056.0000000000005" y="729.9899999999999" as="targetPoint" />
            <mxPoint x="1019.9821356237306" y="771.0078643762694" as="sourcePoint" />
          </mxGeometry>
        </mxCell>
        <mxCell id="BD0k8di83b8WuerWBVUI-367" style="rounded=0;orthogonalLoop=1;jettySize=auto;html=1;strokeWidth=4;sketch=1;curveFitting=1;jiggle=2;strokeColor=#424242;entryX=0.5;entryY=1;entryDx=0;entryDy=0;exitX=0.5;exitY=0;exitDx=0;exitDy=0;" parent="1" source="BD0k8di83b8WuerWBVUI-358" target="BD0k8di83b8WuerWBVUI-359" edge="1">
          <mxGeometry relative="1" as="geometry">
            <mxPoint x="1141" y="777" as="targetPoint" />
            <mxPoint x="1056" y="648" as="sourcePoint" />
          </mxGeometry>
        </mxCell>
        <mxCell id="BD0k8di83b8WuerWBVUI-368" style="rounded=0;orthogonalLoop=1;jettySize=auto;html=1;strokeWidth=4;sketch=1;curveFitting=1;jiggle=2;strokeColor=#424242;entryX=0.767;entryY=1.071;entryDx=0;entryDy=0;entryPerimeter=0;exitX=-0.018;exitY=0.325;exitDx=0;exitDy=0;exitPerimeter=0;" parent="1" source="BD0k8di83b8WuerWBVUI-355" edge="1">
          <mxGeometry relative="1" as="geometry">
            <mxPoint x="976.6799999999998" y="895.8400000000001" as="targetPoint" />
            <mxPoint x="1026" y="928" as="sourcePoint" />
          </mxGeometry>
        </mxCell>
        <mxCell id="BD0k8di83b8WuerWBVUI-369" style="rounded=0;orthogonalLoop=1;jettySize=auto;html=1;strokeWidth=3;sketch=1;curveFitting=1;jiggle=2;strokeColor=#424242;exitX=0.612;exitY=-0.011;exitDx=0;exitDy=0;entryX=0.237;entryY=0.943;entryDx=0;entryDy=0;exitPerimeter=0;entryPerimeter=0;" parent="1" target="BD0k8di83b8WuerWBVUI-361" edge="1">
          <mxGeometry relative="1" as="geometry">
            <mxPoint x="983" y="765.5" as="targetPoint" />
            <mxPoint x="970.48" y="852.5600000000002" as="sourcePoint" />
          </mxGeometry>
        </mxCell>
        <mxCell id="BD0k8di83b8WuerWBVUI-370" value="understanding" style="text;html=1;align=center;verticalAlign=middle;resizable=0;points=[];autosize=1;fillColor=default;strokeColor=default;fontSize=16;strokeWidth=2;" parent="1" vertex="1">
          <mxGeometry x="996" y="1008" width="120" height="30" as="geometry" />
        </mxCell>
        <mxCell id="7sk8zwTGvRdQgl3fTPdU-3" value="" style="rounded=0;whiteSpace=wrap;html=1;fillColor=none;sketch=1;curveFitting=1;jiggle=2;" parent="1" vertex="1">
          <mxGeometry x="20" y="577" width="470" height="483" as="geometry" />
        </mxCell>
        <mxCell id="7sk8zwTGvRdQgl3fTPdU-5" value="" style="rounded=0;whiteSpace=wrap;html=1;fillColor=none;sketch=1;curveFitting=1;jiggle=2;" parent="1" vertex="1">
          <mxGeometry x="20" y="230" width="350" height="350" as="geometry" />
        </mxCell>
        <mxCell id="7sk8zwTGvRdQgl3fTPdU-6" value="" style="rounded=0;whiteSpace=wrap;html=1;fillColor=none;sketch=1;curveFitting=1;jiggle=2;" parent="1" vertex="1">
          <mxGeometry x="370" y="230" width="440" height="350" as="geometry" />
        </mxCell>
        <mxCell id="7sk8zwTGvRdQgl3fTPdU-7" value="" style="rounded=0;whiteSpace=wrap;html=1;fillColor=none;sketch=1;curveFitting=1;jiggle=2;" parent="1" vertex="1">
          <mxGeometry x="805" y="230" width="435" height="350" as="geometry" />
        </mxCell>
        <mxCell id="7sk8zwTGvRdQgl3fTPdU-8" value="" style="rounded=0;whiteSpace=wrap;html=1;fillColor=none;sketch=1;curveFitting=1;jiggle=2;" parent="1" vertex="1">
          <mxGeometry x="490" y="580" width="410" height="483" as="geometry" />
        </mxCell>
        <mxCell id="7sk8zwTGvRdQgl3fTPdU-9" value="" style="rounded=0;whiteSpace=wrap;html=1;fillColor=none;sketch=1;curveFitting=1;jiggle=2;" parent="1" vertex="1">
          <mxGeometry x="900" y="580" width="340" height="483" as="geometry" />
        </mxCell>
        <mxCell id="7sk8zwTGvRdQgl3fTPdU-10" value="1" style="ellipse;whiteSpace=wrap;html=1;" parent="1" vertex="1">
          <mxGeometry x="40" y="520" width="20" height="20" as="geometry" />
        </mxCell>
        <mxCell id="7sk8zwTGvRdQgl3fTPdU-12" value="2" style="ellipse;whiteSpace=wrap;html=1;" parent="1" vertex="1">
          <mxGeometry x="490" y="520" width="20" height="20" as="geometry" />
        </mxCell>
        <mxCell id="7sk8zwTGvRdQgl3fTPdU-14" value="3" style="ellipse;whiteSpace=wrap;html=1;" parent="1" vertex="1">
          <mxGeometry x="955" y="520" width="20" height="20" as="geometry" />
        </mxCell>
        <mxCell id="7sk8zwTGvRdQgl3fTPdU-15" value="4" style="ellipse;whiteSpace=wrap;html=1;" parent="1" vertex="1">
          <mxGeometry x="114" y="994" width="20" height="20" as="geometry" />
        </mxCell>
        <mxCell id="7sk8zwTGvRdQgl3fTPdU-17" value="5" style="ellipse;whiteSpace=wrap;html=1;" parent="1" vertex="1">
          <mxGeometry x="617" y="994" width="20" height="20" as="geometry" />
        </mxCell>
        <mxCell id="7sk8zwTGvRdQgl3fTPdU-18" value="6" style="ellipse;whiteSpace=wrap;html=1;" parent="1" vertex="1">
          <mxGeometry x="985" y="994" width="20" height="20" as="geometry" />
        </mxCell>
      </root>
    </mxGraphModel>
  </diagram>
  <diagram id="BqZ8T02HI3YmMB_LU4Wh" name="translate">
    <mxGraphModel dx="1042" dy="895" grid="1" gridSize="10" guides="1" tooltips="1" connect="1" arrows="1" fold="1" page="1" pageScale="1" pageWidth="500" pageHeight="300" math="0" shadow="0">
      <root>
        <mxCell id="0" />
        <mxCell id="1" parent="0" />
        <mxCell id="VJNP8u92SCKh2EHWTnBr-1" value="" style="ellipse;whiteSpace=wrap;html=1;aspect=fixed;fillColor=#DADADA;fontColor=#333333;strokeColor=#666666;strokeWidth=3;fillStyle=solid;" parent="1" vertex="1">
          <mxGeometry x="75" y="132" width="40" height="40" as="geometry" />
        </mxCell>
        <mxCell id="VJNP8u92SCKh2EHWTnBr-2" value="" style="ellipse;whiteSpace=wrap;html=1;aspect=fixed;fillColor=#DADADA;fontColor=#333333;strokeColor=#666666;strokeWidth=3;fillStyle=solid;" parent="1" vertex="1">
          <mxGeometry x="215" y="162" width="40" height="40" as="geometry" />
        </mxCell>
        <mxCell id="QVMJ4eVIb3q-Eor5JjbB-1" style="rounded=0;orthogonalLoop=1;jettySize=auto;html=1;exitX=1.04;exitY=0.365;exitDx=0;exitDy=0;strokeWidth=4;sketch=1;curveFitting=1;jiggle=2;strokeColor=#424242;exitPerimeter=0;entryX=0;entryY=0;entryDx=0;entryDy=0;" parent="1" source="VJNP8u92SCKh2EHWTnBr-1" target="VJNP8u92SCKh2EHWTnBr-2" edge="1">
          <mxGeometry relative="1" as="geometry">
            <mxPoint x="355" y="192" as="targetPoint" />
            <mxPoint x="644" y="132" as="sourcePoint" />
          </mxGeometry>
        </mxCell>
        <mxCell id="QVMJ4eVIb3q-Eor5JjbB-2" value="&quot;Camera&quot;" style="text;html=1;align=center;verticalAlign=middle;resizable=0;points=[];autosize=1;strokeColor=none;fillColor=none;fontSize=15;" parent="1" vertex="1">
          <mxGeometry x="50" y="82" width="90" height="30" as="geometry" />
        </mxCell>
        <mxCell id="QVMJ4eVIb3q-Eor5JjbB-3" value="&lt;font&gt;&quot;دوربین&lt;/font&gt;&quot;" style="text;html=1;align=center;verticalAlign=middle;resizable=0;points=[];autosize=1;strokeColor=none;fillColor=none;fontFamily=Tahoma;fontSize=17;" parent="1" vertex="1">
          <mxGeometry x="195" y="112" width="80" height="30" as="geometry" />
        </mxCell>
        <mxCell id="QVMJ4eVIb3q-Eor5JjbB-5" value="" style="sketch=0;outlineConnect=0;fontColor=#232F3E;gradientColor=none;fillColor=#232F3D;strokeColor=none;dashed=0;verticalLabelPosition=bottom;verticalAlign=top;align=center;html=1;fontSize=12;fontStyle=0;aspect=fixed;pointerEvents=1;shape=mxgraph.aws4.camera2;" parent="1" vertex="1">
          <mxGeometry x="385" y="107.92000000000002" width="48" height="38.15" as="geometry" />
        </mxCell>
        <mxCell id="QVMJ4eVIb3q-Eor5JjbB-6" style="rounded=0;orthogonalLoop=1;jettySize=auto;html=1;strokeWidth=4;sketch=1;curveFitting=1;jiggle=2;strokeColor=#424242;entryX=1;entryY=0;entryDx=0;entryDy=0;" parent="1" target="VJNP8u92SCKh2EHWTnBr-2" edge="1">
          <mxGeometry relative="1" as="geometry">
            <mxPoint x="295" y="202" as="targetPoint" />
            <mxPoint x="355" y="132" as="sourcePoint" />
          </mxGeometry>
        </mxCell>
        <mxCell id="QVMJ4eVIb3q-Eor5JjbB-7" style="rounded=0;orthogonalLoop=1;jettySize=auto;html=1;exitX=0;exitY=0.75;exitDx=0;exitDy=0;strokeWidth=4;sketch=1;curveFitting=1;jiggle=2;strokeColor=#424242;entryX=1.024;entryY=0.865;entryDx=0;entryDy=0;entryPerimeter=0;exitPerimeter=0;shadow=0;flowAnimation=0;dashed=1;" parent="1" source="VJNP8u92SCKh2EHWTnBr-2" target="VJNP8u92SCKh2EHWTnBr-1" edge="1">
          <mxGeometry relative="1" as="geometry">
            <mxPoint x="215" y="243" as="targetPoint" />
            <mxPoint x="111" y="222" as="sourcePoint" />
          </mxGeometry>
        </mxCell>
        <mxCell id="QVMJ4eVIb3q-Eor5JjbB-8" style="rounded=0;orthogonalLoop=1;jettySize=auto;html=1;exitX=1.024;exitY=0.703;exitDx=0;exitDy=0;strokeWidth=4;sketch=1;curveFitting=1;jiggle=2;strokeColor=#424242;exitPerimeter=0;" parent="1" source="VJNP8u92SCKh2EHWTnBr-2" edge="1">
          <mxGeometry relative="1" as="geometry">
            <mxPoint x="375" y="152" as="targetPoint" />
            <mxPoint x="127" y="157" as="sourcePoint" />
          </mxGeometry>
        </mxCell>
        <mxCell id="QVMJ4eVIb3q-Eor5JjbB-11" value="🇮🇷" style="text;html=1;align=center;verticalAlign=middle;resizable=0;points=[];autosize=1;strokeColor=none;fillColor=none;fontSize=27;" parent="1" vertex="1">
          <mxGeometry x="210" y="70" width="50" height="50" as="geometry" />
        </mxCell>
        <mxCell id="QVMJ4eVIb3q-Eor5JjbB-12" value="&lt;span style=&quot;-webkit-line-clamp: 3;&quot; class=&quot;kY2IgmnCmOGjharHErah&quot;&gt;&lt;span&gt;🇬🇧&lt;/span&gt;&lt;/span&gt;" style="text;html=1;align=center;verticalAlign=middle;resizable=0;points=[];autosize=1;strokeColor=none;fillColor=none;fontSize=27;" parent="1" vertex="1">
          <mxGeometry x="70" y="30" width="50" height="50" as="geometry" />
        </mxCell>
        <mxCell id="QVMJ4eVIb3q-Eor5JjbB-13" value="explorative" style="text;html=1;align=center;verticalAlign=middle;resizable=0;points=[];autosize=1;strokeColor=none;fillColor=none;" parent="1" vertex="1">
          <mxGeometry x="115" y="192" width="80" height="30" as="geometry" />
        </mxCell>
        <mxCell id="QVMJ4eVIb3q-Eor5JjbB-14" value="straight forward" style="text;html=1;align=center;verticalAlign=middle;resizable=0;points=[];autosize=1;strokeColor=none;fillColor=none;" parent="1" vertex="1">
          <mxGeometry x="275" y="192" width="110" height="30" as="geometry" />
        </mxCell>
      </root>
    </mxGraphModel>
  </diagram>
  <diagram id="ch_ZXIWREaBpxxp9YMFW" name="KLU ven">
    <mxGraphModel dx="521" dy="447" grid="1" gridSize="10" guides="1" tooltips="1" connect="1" arrows="1" fold="1" page="1" pageScale="1" pageWidth="200" pageHeight="200" math="0" shadow="0">
      <root>
        <mxCell id="0" />
        <mxCell id="1" parent="0" />
        <mxCell id="I7wBSkPzccclOkML6wQs-1" value="" style="ellipse;whiteSpace=wrap;html=1;aspect=fixed;sketch=1;curveFitting=1;jiggle=2;fillColor=#f8cecc;strokeColor=#b85450;direction=south;" parent="1" vertex="1">
          <mxGeometry x="35" y="40" width="80" height="80" as="geometry" />
        </mxCell>
        <mxCell id="I7wBSkPzccclOkML6wQs-2" value="" style="ellipse;whiteSpace=wrap;html=1;aspect=fixed;sketch=1;curveFitting=1;jiggle=2;fillColor=#dae8fc;strokeColor=#6c8ebf;direction=south;" parent="1" vertex="1">
          <mxGeometry x="85" y="40" width="80" height="80" as="geometry" />
        </mxCell>
        <mxCell id="I7wBSkPzccclOkML6wQs-3" value="" style="ellipse;whiteSpace=wrap;html=1;aspect=fixed;sketch=1;curveFitting=1;jiggle=2;fillColor=#d5e8d4;strokeColor=#82b366;direction=south;" parent="1" vertex="1">
          <mxGeometry x="65" y="80" width="80" height="80" as="geometry" />
        </mxCell>
        <mxCell id="I7wBSkPzccclOkML6wQs-4" value="Understanding" style="rounded=0;whiteSpace=wrap;html=1;strokeColor=none;fontSize=7;" parent="1" vertex="1">
          <mxGeometry x="77.5" y="130" width="55" height="10" as="geometry" />
        </mxCell>
        <mxCell id="I7wBSkPzccclOkML6wQs-5" value="Learning" style="rounded=0;whiteSpace=wrap;html=1;strokeColor=none;fontSize=7;" parent="1" vertex="1">
          <mxGeometry x="122" y="70" width="35" height="10" as="geometry" />
        </mxCell>
        <mxCell id="I7wBSkPzccclOkML6wQs-6" value="Knowing" style="rounded=0;whiteSpace=wrap;html=1;strokeColor=none;fontSize=7;" parent="1" vertex="1">
          <mxGeometry x="42.5" y="70" width="35" height="10" as="geometry" />
        </mxCell>
      </root>
    </mxGraphModel>
  </diagram>
  <diagram id="73Gm9S4QtMCbYmJ23a_S" name="geometry of terms">
    <mxGraphModel dx="566" dy="486" grid="1" gridSize="10" guides="1" tooltips="1" connect="1" arrows="1" fold="1" page="1" pageScale="1" pageWidth="600" pageHeight="400" math="0" shadow="0">
      <root>
        <mxCell id="0" />
        <mxCell id="1" parent="0" />
        <mxCell id="3_8O2vwwkvAOZbS6-UF9-1" value="" style="ellipse;whiteSpace=wrap;html=1;aspect=fixed;sketch=1;curveFitting=1;jiggle=2;direction=south;fillColor=#f5f5f5;strokeColor=#666666;fontColor=#333333;" parent="1" vertex="1">
          <mxGeometry x="200" y="82" width="200" height="200" as="geometry" />
        </mxCell>
        <mxCell id="3_8O2vwwkvAOZbS6-UF9-5" value="" style="ellipse;whiteSpace=wrap;html=1;aspect=fixed;direction=south;" parent="1" vertex="1">
          <mxGeometry x="240" y="92" width="10" height="10" as="geometry" />
        </mxCell>
        <mxCell id="3_8O2vwwkvAOZbS6-UF9-9" value="Straight-forward/Explorative" style="text;html=1;align=center;verticalAlign=middle;resizable=0;points=[];autosize=1;strokeColor=none;fillColor=none;fontFamily=Lucida Console;" parent="1" vertex="1">
          <mxGeometry x="50" y="62" width="230" height="30" as="geometry" />
        </mxCell>
        <mxCell id="3_8O2vwwkvAOZbS6-UF9-10" value="Height" style="text;html=1;align=center;verticalAlign=middle;resizable=0;points=[];autosize=1;strokeColor=none;fillColor=none;fontFamily=Lucida Console;" parent="1" vertex="1">
          <mxGeometry x="390" y="112" width="70" height="30" as="geometry" />
        </mxCell>
        <mxCell id="3_8O2vwwkvAOZbS6-UF9-11" value="Heavy/Light" style="text;html=1;align=center;verticalAlign=middle;resizable=0;points=[];autosize=1;strokeColor=none;fillColor=none;fontFamily=Lucida Console;" parent="1" vertex="1">
          <mxGeometry x="85" y="122" width="100" height="30" as="geometry" />
        </mxCell>
        <mxCell id="3_8O2vwwkvAOZbS6-UF9-12" value="No.&amp;nbsp;Distributor nodes" style="text;html=1;align=center;verticalAlign=middle;resizable=0;points=[];autosize=1;strokeColor=none;fillColor=none;fontFamily=Lucida Console;" parent="1" vertex="1">
          <mxGeometry x="398" y="170" width="180" height="30" as="geometry" />
        </mxCell>
        <mxCell id="3_8O2vwwkvAOZbS6-UF9-13" value="Simple/Complex" style="text;html=1;align=center;verticalAlign=middle;resizable=0;points=[];autosize=1;strokeColor=none;fillColor=none;fontFamily=Lucida Console;" parent="1" vertex="1">
          <mxGeometry x="75" y="202" width="120" height="30" as="geometry" />
        </mxCell>
        <mxCell id="3_8O2vwwkvAOZbS6-UF9-14" value="&lt;div&gt;No.&amp;nbsp;Collector  nodes&lt;/div&gt;" style="text;html=1;align=center;verticalAlign=middle;resizable=0;points=[];autosize=1;strokeColor=none;fillColor=none;fontFamily=Lucida Console;" parent="1" vertex="1">
          <mxGeometry x="370" y="242" width="160" height="30" as="geometry" />
        </mxCell>
        <mxCell id="3_8O2vwwkvAOZbS6-UF9-15" value="" style="ellipse;whiteSpace=wrap;html=1;aspect=fixed;direction=south;" parent="1" vertex="1">
          <mxGeometry x="380" y="122" width="10" height="10" as="geometry" />
        </mxCell>
        <mxCell id="3_8O2vwwkvAOZbS6-UF9-17" value="" style="ellipse;whiteSpace=wrap;html=1;aspect=fixed;direction=south;" parent="1" vertex="1">
          <mxGeometry x="200" y="142" width="10" height="10" as="geometry" />
        </mxCell>
        <mxCell id="3_8O2vwwkvAOZbS6-UF9-19" value="" style="ellipse;whiteSpace=wrap;html=1;aspect=fixed;direction=south;" parent="1" vertex="1">
          <mxGeometry x="398" y="190" width="10" height="10" as="geometry" />
        </mxCell>
        <mxCell id="3_8O2vwwkvAOZbS6-UF9-20" value="" style="ellipse;whiteSpace=wrap;html=1;aspect=fixed;direction=south;" parent="1" vertex="1">
          <mxGeometry x="200" y="212" width="10" height="10" as="geometry" />
        </mxCell>
        <mxCell id="3_8O2vwwkvAOZbS6-UF9-22" value="" style="ellipse;whiteSpace=wrap;html=1;aspect=fixed;direction=south;" parent="1" vertex="1">
          <mxGeometry x="360" y="252" width="10" height="10" as="geometry" />
        </mxCell>
        <mxCell id="3_8O2vwwkvAOZbS6-UF9-26" value="" style="endArrow=none;dashed=1;html=1;dashPattern=1 3;strokeWidth=2;rounded=0;entryX=0.087;entryY=0.781;entryDx=0;entryDy=0;entryPerimeter=0;exitX=0.225;exitY=0.083;exitDx=0;exitDy=0;exitPerimeter=0;" parent="1" source="3_8O2vwwkvAOZbS6-UF9-1" target="3_8O2vwwkvAOZbS6-UF9-1" edge="1">
          <mxGeometry width="50" height="50" relative="1" as="geometry">
            <mxPoint x="300" y="192" as="sourcePoint" />
            <mxPoint x="350" y="142" as="targetPoint" />
          </mxGeometry>
        </mxCell>
        <mxCell id="3_8O2vwwkvAOZbS6-UF9-27" value="" style="endArrow=none;dashed=1;html=1;dashPattern=1 3;strokeWidth=2;rounded=0;entryX=0.326;entryY=0.966;entryDx=0;entryDy=0;entryPerimeter=0;exitX=0.568;exitY=-0.008;exitDx=0;exitDy=0;exitPerimeter=0;flowAnimation=0;shadow=0;" parent="1" source="3_8O2vwwkvAOZbS6-UF9-1" target="3_8O2vwwkvAOZbS6-UF9-1" edge="1">
          <mxGeometry width="50" height="50" relative="1" as="geometry">
            <mxPoint x="409" y="130" as="sourcePoint" />
            <mxPoint x="270" y="102" as="targetPoint" />
          </mxGeometry>
        </mxCell>
        <mxCell id="3_8O2vwwkvAOZbS6-UF9-28" value="" style="endArrow=none;dashed=1;html=1;dashPattern=1 3;strokeWidth=2;rounded=0;entryX=0.326;entryY=0.966;entryDx=0;entryDy=0;entryPerimeter=0;exitX=0.874;exitY=0.191;exitDx=0;exitDy=0;exitPerimeter=0;" parent="1" source="3_8O2vwwkvAOZbS6-UF9-1" edge="1">
          <mxGeometry width="50" height="50" relative="1" as="geometry">
            <mxPoint x="400" y="271" as="sourcePoint" />
            <mxPoint x="205" y="222" as="targetPoint" />
          </mxGeometry>
        </mxCell>
        <mxCell id="85EpO50Hj_Jn7UX03qr_-1" value="" style="endArrow=none;html=1;rounded=0;strokeWidth=2;fillColor=#f8cecc;strokeColor=#b85450;sketch=1;curveFitting=1;jiggle=2;flowAnimation=0;" parent="1" edge="1">
          <mxGeometry width="50" height="50" relative="1" as="geometry">
            <mxPoint x="299" y="294" as="sourcePoint" />
            <mxPoint x="305" y="41" as="targetPoint" />
          </mxGeometry>
        </mxCell>
        <mxCell id="85EpO50Hj_Jn7UX03qr_-2" value="&lt;div&gt;Human terms&lt;/div&gt;" style="text;html=1;align=center;verticalAlign=middle;resizable=0;points=[];autosize=1;strokeColor=none;fillColor=none;fontStyle=1" parent="1" vertex="1">
          <mxGeometry x="195" y="20" width="100" height="30" as="geometry" />
        </mxCell>
        <mxCell id="85EpO50Hj_Jn7UX03qr_-3" value="Theory of Understanding terms" style="text;html=1;align=center;verticalAlign=middle;resizable=0;points=[];autosize=1;strokeColor=none;fillColor=none;fontStyle=1" parent="1" vertex="1">
          <mxGeometry x="308" y="20" width="190" height="30" as="geometry" />
        </mxCell>
        <mxCell id="85EpO50Hj_Jn7UX03qr_-4" value="" style="endArrow=none;html=1;rounded=0;strokeWidth=2;fillColor=#f8cecc;strokeColor=#b85450;sketch=1;curveFitting=1;jiggle=2;flowAnimation=0;" parent="1" edge="1">
          <mxGeometry width="50" height="50" relative="1" as="geometry">
            <mxPoint x="184" y="58" as="sourcePoint" />
            <mxPoint x="494" y="58" as="targetPoint" />
          </mxGeometry>
        </mxCell>
      </root>
    </mxGraphModel>
  </diagram>
</mxfile>
